<mxfile host="app.diagrams.net" modified="2020-10-13T15:19:45.900Z" agent="5.0 (X11; Linux x86_64) AppleWebKit/537.36 (KHTML, like Gecko) Chrome/85.0.4183.121 Safari/537.36" etag="daC_FsZ06npKTD-F8D64" version="13.7.9" type="github">
  <diagram id="pDvoRchloZrPpNPLZInG" name="Page-1">
    <mxGraphModel dx="799" dy="465" grid="1" gridSize="10" guides="1" tooltips="1" connect="1" arrows="1" fold="1" page="1" pageScale="1" pageWidth="1169" pageHeight="826" math="0" shadow="0">
      <root>
        <mxCell id="0" />
        <mxCell id="1" parent="0" />
        <mxCell id="fwUX8foP0lUSFtVP6drE-1" value="&lt;font style=&quot;font-size: 19px&quot;&gt;Lớp 4: Hệ điều hành&lt;/font&gt;" style="rounded=0;whiteSpace=wrap;html=1;fillColor=#dae8fc;strokeColor=#6c8ebf;" vertex="1" parent="1">
          <mxGeometry x="170" y="80" width="310" height="60" as="geometry" />
        </mxCell>
        <mxCell id="fwUX8foP0lUSFtVP6drE-2" value="&lt;font style=&quot;font-size: 19px&quot;&gt;Lớp 3: Máy ảo&lt;/font&gt;" style="rounded=0;whiteSpace=wrap;html=1;fillColor=#dae8fc;strokeColor=#6c8ebf;" vertex="1" parent="1">
          <mxGeometry x="170" y="160" width="310" height="60" as="geometry" />
        </mxCell>
        <mxCell id="fwUX8foP0lUSFtVP6drE-3" value="Lớp 2:&amp;nbsp; Các phần mềm ảo hóa" style="rounded=0;whiteSpace=wrap;html=1;fillColor=#dae8fc;strokeColor=#6c8ebf;fontSize=19;" vertex="1" parent="1">
          <mxGeometry x="170" y="240" width="310" height="60" as="geometry" />
        </mxCell>
        <mxCell id="fwUX8foP0lUSFtVP6drE-4" value="&lt;font style=&quot;font-size: 19px&quot;&gt;Lớp 1: Tài nguyên vật lí&lt;/font&gt;" style="rounded=0;whiteSpace=wrap;html=1;fillColor=#dae8fc;strokeColor=#6c8ebf;" vertex="1" parent="1">
          <mxGeometry x="170" y="320" width="310" height="60" as="geometry" />
        </mxCell>
        <mxCell id="fwUX8foP0lUSFtVP6drE-6" style="edgeStyle=orthogonalEdgeStyle;rounded=0;orthogonalLoop=1;jettySize=auto;html=1;fontSize=19;" edge="1" parent="1" source="fwUX8foP0lUSFtVP6drE-5" target="fwUX8foP0lUSFtVP6drE-1">
          <mxGeometry relative="1" as="geometry" />
        </mxCell>
        <mxCell id="fwUX8foP0lUSFtVP6drE-5" value="" style="shape=singleArrow;direction=south;whiteSpace=wrap;html=1;fontSize=19;" vertex="1" parent="1">
          <mxGeometry x="290" y="130" width="60" height="40" as="geometry" />
        </mxCell>
        <mxCell id="fwUX8foP0lUSFtVP6drE-7" value="" style="shape=singleArrow;direction=south;whiteSpace=wrap;html=1;fontSize=19;" vertex="1" parent="1">
          <mxGeometry x="290" y="210" width="60" height="40" as="geometry" />
        </mxCell>
        <mxCell id="fwUX8foP0lUSFtVP6drE-8" value="" style="shape=singleArrow;direction=south;whiteSpace=wrap;html=1;fontSize=19;" vertex="1" parent="1">
          <mxGeometry x="295" y="280" width="60" height="50" as="geometry" />
        </mxCell>
      </root>
    </mxGraphModel>
  </diagram>
</mxfile>
